# xmcd
#
# Track frame offsets: 
#        150
#        11700
#        22392
#        30805
#        41277
#        49925
#        60097
#        70817
#        82427
#        92800
#        101582
#        111587
#        120172
#        127475
#        134512
#        146540
#        154900
#        161380
#        171070
#        180245
#        188837
#        197335
#        205270
#        215730
#        224757
#        231650
#        240925
#        250650
#        260387
#
# Disc length: 3597 seconds
#
# Revision: 2
# Processed by: cddbd v1.5.1PL2 Copyright (c) Steve Scherf et al.
# Submitted via: ExactAudioCopy v0.95a5
#
DISCID=a40e0b1d
DTITLE=DJ Bonus  - MAXI 3 Kingdom
DYEAR=1997
DGENRE=Dance
TTITLE0=I`ll Be Missing You
TTITLE1=Everying U Want
TTITLE2=Don`t Stop
TTITLE3=E.O.E.
TTITLE4=Baby Come Around
TTITLE5=Saturday Night
TTITLE6=Body Shakin`
TTITLE7=Come and Get It
TTITLE8=Lovie Is Your Game
TTITLE9=Ymca
TTITLE10=Satomi Hakken
TTITLE11=Heaven
TTITLE12=Hey babe
TTITLE13=Don`t Speak
TTITLE14=Excalibur
TTITLE15=So Hard
TTITLE16=Come All Over Me
TTITLE17=Just Playin`
TTITLE18=Friction
TTITLE19=Passion
TTITLE20=And Then The Rain Falls
TTITLE21=The Theme
TTITLE22=Indian Power
TTITLE23=Groovebiro
TTITLE24=I love You ....Stop
TTITLE25=Get Ready To Bounce
TTITLE26=La Batteria
TTITLE27=Break and Enter
TTITLE28=Free
EXTD=
EXTT0=
EXTT1=
EXTT2=
EXTT3=
EXTT4=
EXTT5=
EXTT6=
EXTT7=
EXTT8=
EXTT9=
EXTT10=
EXTT11=
EXTT12=
EXTT13=
EXTT14=
EXTT15=
EXTT16=
EXTT17=
EXTT18=
EXTT19=
EXTT20=
EXTT21=
EXTT22=
EXTT23=
EXTT24=
EXTT25=
EXTT26=
EXTT27=
EXTT28=
PLAYORDER=
